<svg height="464pt" viewBox="-16 0 464 464.00001" width="464pt" xmlns="http://www.w3.org/2000/svg"><path d="m104 384h192v32h-192zm0 0" fill="#743b20"/><path d="m104 464h-32l96-464h32zm0 0" fill="#7a432a"/><path d="m296 464h32l-96-464h-32zm0 0" fill="#7a432a"/><path d="m184 320h32v64h-32zm0 0" fill="#662e13"/><path d="m72 288h256v32h-256zm0 0" fill="#95573a"/><path d="m377.601562 32h-377.601562v256h400v-233.601562" fill="#e0e0de"/><path d="m320 32-256 256h336v-233.601562l-22.398438-22.398438zm0 0" fill="#d6d6d4"/><path d="m216 200 16 16c26.441406-18.515625 51.632812-38.757812 75.40625-60.59375l-30.8125-30.8125c-21.839844 23.769531-42.082031 48.960938-60.59375 75.40625zm0 0" fill="#ffb531"/><path d="m420.257812 0c-2.75-.00390625-5.410156.960938-7.523437 2.71875l-65.71875 54.769531c-24.929687 20.78125-48.449219 43.199219-70.398437 67.105469l30.816406 30.8125c23.902344-21.949219 46.320312-45.46875 67.101562-70.398438l54.746094-65.742187c2.917969-3.503906 3.546875-8.375 1.613281-12.503906-1.933593-4.128907-6.082031-6.761719-10.636719-6.761719zm0 0" fill="#95573a"/><path d="m216 200h-14.449219c-14.851562.015625-27.632812 10.496094-30.558593 25.054688-1.890626 9.429687-8.027344 17.457031-16.625 21.761718l-2.367188 1.183594h44.734375c11.804687-.003906 22.59375-6.671875 27.882813-17.222656l7.382812-14.777344zm0 0" fill="#348fd9"/><g fill="#ebebe9"><path d="m24 56h16v16h-16zm0 0"/><path d="m24 88h16v96h-16zm0 0"/></g></svg>